# xmcd
#
# Track frame offsets:
#  150
#  16413
#  30778
#  44396
#  53463
#  65968
#  84538
#  120403
#  148716
#  167353
#  184519
#  201652
#  220710
#  254888
#  271284
#  285692
#  302534
#  333697
#
# Disc length: 4644 seconds
#
# Revision: 0
# Processed by: cddbd v1.5.1PL2 Copyright (c) Steve Scherf et al.
# Submitted via: Collectorz.com_Music_Collector 6.9
#
DISCID=07122212
DTITLE=Breakout - Blues and Kamienie
DYEAR=1971
DGENRE=Blues
TTITLE0=Ona poszla inna droga
TTITLE1=Kiedy bylem malym chlopcem
TTITLE2=Oni zaraz przyjda tu
TTITLE3=Przyszla do mnie bieda
TTITLE4=Pomaluj moje sny
TTITLE5=Usta me ogrzej
TTITLE6=Gdybym byl wichrem
TTITLE7=Co sie stalo kwiatom
TTITLE8=Dzisiejszej nocy
TTITLE9=Czy zgadniesz
TTITLE10=Czulosc niose tobie
TTITLE11=Spiekota
TTITLE12=Modlitwa
TTITLE13=Badz sloncem
TTITLE14=Pojde prosto
TTITLE15=Kolo mego okna
TTITLE16=Kamienie
TTITLE17=Tobie ta piesn
EXTD=
EXTT0=
EXTT1=
EXTT2=
EXTT3=
EXTT4=
EXTT5=
EXTT6=
EXTT7=
EXTT8=
EXTT9=
EXTT10=
EXTT11=
EXTT12=
EXTT13=
EXTT14=
EXTT15=
EXTT16=
EXTT17=
PLAYORDER=
